<svg width="77" height="77" viewBox="0 0 77 77" fill="none" xmlns="http://www.w3.org/2000/svg">
<g clip-path="url(#clip0_14_48)">
<path d="M61.7381 15.2621C66.4287 19.9655 68.1933 26.4688 67.0318 32.5229C68.8542 33.0363 70.5803 34.0084 72.0176 35.4361C76.5221 39.9085 76.5221 47.1593 72.0176 51.6286L54.5418 68.9792L44.8462 59.3542L35.2918 68.9311L8.08514 41.6859C1.33802 34.1271 1.59147 22.5193 8.84551 15.2621C16.1124 7.99843 27.7362 7.7546 35.295 14.5306C42.8314 7.76422 54.4776 7.98881 61.7381 15.2621ZM41.5866 39.9919C39.6102 41.9522 39.6102 45.1156 41.5866 47.0759L54.5418 59.9381L67.4971 47.0759C69.4734 45.1156 69.4734 41.9522 67.4971 39.9919C65.4951 38.0028 62.229 38.0028 60.2206 39.9983L54.5354 45.6258L50.0213 41.1469L48.8566 39.9919C46.8546 38.0028 43.5886 38.0028 41.5866 39.9919ZM13.3853 19.8019C8.60489 24.5823 8.36426 32.2342 12.7693 37.2905L35.2918 59.8483L40.2936 54.8369L37.066 51.6286C32.5615 47.1593 32.5615 39.9085 37.066 35.4361C41.5705 30.9669 48.8727 30.9669 53.3772 35.4361L54.5418 36.5911L55.7064 35.4361C57.07 34.0854 58.6902 33.1421 60.4066 32.6063C61.7413 28.2206 60.6569 23.2637 57.1951 19.7955C52.3826 14.9766 44.6184 14.7808 39.5813 19.3046L35.2982 23.1482L31.0119 19.3078C25.9588 14.7776 18.2106 14.9766 13.3853 19.8019Z" fill="white"/>
</g>
<defs>
<clipPath id="clip0_14_48">
<rect width="77" height="77" fill="white"/>
</clipPath>
</defs>
</svg>
