<svg width="77" height="77" viewBox="0 0 77 77" fill="none" xmlns="http://www.w3.org/2000/svg">
<g clip-path="url(#clip0_14_67)">
<path d="M9.625 9.59942C9.625 7.84125 11.0527 6.41675 12.8109 6.41675H64.1891C65.0317 6.42262 65.8381 6.75972 66.4343 7.35523C67.0304 7.95073 67.3683 8.75684 67.375 9.59942V67.4007C67.3741 68.2451 67.0381 69.0547 66.4407 69.6514C65.8434 70.2482 65.0335 70.5834 64.1891 70.5834H12.8109C11.9683 70.5775 11.1618 70.2404 10.5657 69.6449C9.96963 69.0494 9.63172 68.2433 9.625 67.4007V9.59942ZM60.9583 35.2917V12.8334H16.0417V35.2917H60.9583ZM60.9583 41.7084H16.0417V64.1667H60.9583V41.7084ZM28.875 19.2501H48.125V25.6667H28.875V19.2501ZM28.875 48.1251H48.125V54.5417H28.875V48.1251Z" fill="white"/>
</g>
<defs>
<clipPath id="clip0_14_67">
<rect width="77" height="77" fill="white"/>
</clipPath>
</defs>
</svg>
