<svg width="77" height="77" viewBox="0 0 77 77" fill="none" xmlns="http://www.w3.org/2000/svg">
<g clip-path="url(#clip0_15_84)">
<path d="M38.4997 44.9166V51.3333C33.3943 51.3333 28.4979 53.3614 24.8879 56.9714C21.2778 60.5815 19.2497 65.4778 19.2497 70.5833H12.833C12.833 63.776 15.5372 57.2476 20.3506 52.4342C25.164 47.6207 31.6925 44.9166 38.4997 44.9166ZM38.4997 41.7083C27.864 41.7083 19.2497 33.0939 19.2497 22.4583C19.2497 11.8226 27.864 3.20825 38.4997 3.20825C49.1353 3.20825 57.7497 11.8226 57.7497 22.4583C57.7497 33.0939 49.1353 41.7083 38.4997 41.7083ZM38.4997 35.2916C45.5901 35.2916 51.333 29.5487 51.333 22.4583C51.333 15.3678 45.5901 9.62492 38.4997 9.62492C31.4093 9.62492 25.6663 15.3678 25.6663 22.4583C25.6663 29.5487 31.4093 35.2916 38.4997 35.2916ZM57.7497 68.9791L48.3204 73.936L50.1203 63.4383L42.4941 56.0014L53.0366 54.4678L57.7497 44.9166L62.4659 54.4678L73.0053 56.0014L65.3791 63.4383L67.1758 73.936L57.7497 68.9791Z" fill="white"/>
</g>
<defs>
<clipPath id="clip0_15_84">
<rect width="77" height="77" fill="white"/>
</clipPath>
</defs>
</svg>
