<svg width="77" height="77" viewBox="0 0 77 77" fill="none" xmlns="http://www.w3.org/2000/svg">
<g clip-path="url(#clip0_14_81)">
<path d="M17.1003 10.4944C19.1025 9.78015 21.2663 9.64887 23.3401 10.1158C25.4139 10.5828 27.3126 11.6288 28.8154 13.1323C30.3182 14.6357 31.3633 16.5349 31.8294 18.6089C32.2954 20.683 32.1631 22.8467 31.448 24.8485L66.2424 59.6429L59.4343 66.4478L24.6399 31.6566C22.6378 32.3708 20.474 32.5021 18.4002 32.0352C16.3263 31.5682 14.4277 30.5222 12.9249 29.0187C11.4221 27.5153 10.3769 25.6161 9.91087 23.5421C9.44484 21.468 9.57709 19.3043 10.2922 17.3025L17.4661 24.4795C17.91 24.9392 18.441 25.3058 19.0282 25.558C19.6153 25.8102 20.2468 25.943 20.8858 25.9486C21.5248 25.9541 22.1585 25.8323 22.75 25.5904C23.3414 25.3484 23.8787 24.991 24.3306 24.5392C24.7825 24.0873 25.1398 23.55 25.3818 22.9586C25.6238 22.3671 25.7455 21.7334 25.74 21.0944C25.7344 20.4554 25.6017 19.8239 25.3494 19.2368C25.0972 18.6496 24.7306 18.1186 24.271 17.6747L17.0971 10.4912L17.1003 10.4944ZM50.3611 16.5389L60.57 10.8666L65.1066 15.4032L59.4343 25.6121L53.7619 26.7478L46.9603 33.5527L42.4205 29.0161L49.2254 22.2112L50.3611 16.5389ZM27.675 41.4933L34.4799 48.3014L18.5986 64.1827C17.7229 65.0502 16.5476 65.5486 15.3151 65.5751C14.0827 65.6016 12.8871 65.1542 11.9749 64.3251C11.0626 63.496 10.5033 62.3484 10.4123 61.119C10.3213 59.8897 10.7055 58.6723 11.4857 57.7179L11.797 57.3746L27.675 41.4933Z" fill="white"/>
</g>
<defs>
<clipPath id="clip0_14_81">
<rect width="77" height="77" fill="white"/>
</clipPath>
</defs>
</svg>
